# xmcd
#
# Track frame offsets:
# 150
# 10926
# 21982
# 30876
# 40670
# 54170
# 63515
# 77632
# 89671
# 103115
# 112988
# 128377
# 139724
# 156717
#
# Disc length: 2286 seconds
#
#
# Revision: 0
# Processed by: cddbd v1.5.2PL0 Copyright (c) Steve Scherf et al.
# Submitted via: FreeRIP 2.96 
#
DISCID=aa08ec0e
DTITLE=Ursprung Buam - Der Geigenspiel aus dem Zillertal
DYEAR=1900
DGENRE=Trailer
TTITLE0=Der Geigenspieler aus dem Zillertal
TTITLE1=Der Geigenmann
TTITLE2=Gruß aus dem Zillertal
TTITLE3=Hoppala polka
TTITLE4=Großvaters alte Geign
TTITLE5=Die Ursprungbuam so wear`n mar g`nennt
TTITLE6=Hoamat is Zillertal
TTITLE7=Zeit in den Bergen
TTITLE8=Haben Sie heut schon gsungen
TTITLE9=Schuster bleib bei deinen Leisten
TTITLE10=Für die wearn wieder Rosen blühn
TTITLE11=Zillertaler Hochzeitsmarsch
TTITLE12=Monte Christo
TTITLE13=Über sieben Strafen
EXTD=
EXTT0=
EXTT1=
EXTT2=
EXTT3=
EXTT4=
EXTT5=
EXTT6=
EXTT7=
EXTT8=
EXTT9=
EXTT10=
EXTT11=
EXTT12=
EXTT13=
PLAYORDER=
